<svg xmlns="http://www.w3.org/2000/svg" viewBox="0 0 200 200" width="200" height="200">
	<style>
		tspan { white-space:pre }
		.shp0 { fill: #3b589b } 
		.shp1 { fill: #fdfefd } 
	</style>
	<g id="Background">
		<path id="Path 0" class="shp0" d="M83,1.48c-4.12,0.79 -10.42,2.34 -14,3.45c-3.58,1.1 -10.1,3.87 -14.5,6.14c-4.4,2.27 -11.15,6.53 -15,9.46c-3.85,2.93 -8.87,7.27 -11.15,9.65c-2.28,2.38 -6.33,7.26 -9,10.85c-2.67,3.59 -6.83,10.56 -9.25,15.5c-2.42,4.94 -5.53,13.25 -6.92,18.48c-2.18,8.21 -2.53,11.6 -2.53,25c0,13.43 0.34,16.77 2.54,25c1.39,5.22 4.36,13.32 6.59,18c2.23,4.67 6.73,12.1 10,16.5c3.27,4.4 8.6,10.44 11.83,13.42c3.24,2.98 9.49,7.79 13.89,10.68c4.4,2.89 11.37,6.67 15.5,8.39c4.12,1.72 11.33,4.1 16,5.28c6.76,1.71 11.47,2.15 23,2.15c11.53,0 16.24,-0.44 23,-2.15c4.68,-1.18 11.88,-3.56 16,-5.28c4.12,-1.72 11.32,-5.64 16,-8.7c4.67,-3.06 11.7,-8.77 15.61,-12.68c3.91,-3.91 9.62,-10.94 12.68,-15.61c3.06,-4.68 6.98,-11.87 8.7,-16c1.72,-4.12 4.1,-11.33 5.28,-16c1.71,-6.76 2.15,-11.47 2.15,-23c0,-11.65 -0.43,-16.22 -2.21,-23.25c-1.22,-4.81 -3.6,-12.01 -5.29,-16c-1.69,-3.99 -5.58,-11.07 -8.64,-15.75c-3.06,-4.67 -8.76,-11.7 -12.67,-15.61c-3.91,-3.91 -10.94,-9.61 -15.61,-12.67c-4.68,-3.06 -11.65,-6.92 -15.5,-8.58c-3.85,-1.66 -10.83,-3.97 -15.5,-5.14c-5.52,-1.38 -12.88,-2.27 -21,-2.54c-8.38,-0.28 -14.97,0.06 -20,1.02z" />
		<path id="Path 1" class="shp1" d="M106.75,40.1c-2.06,0.49 -5.44,1.74 -7.5,2.76c-2.06,1.02 -5.46,3.84 -7.54,6.25c-2.11,2.44 -4.45,6.62 -5.26,9.39c-0.94,3.2 -1.46,9.41 -1.46,17.25l0.01,12.25h-21v24h21v61h24v-61l20.5,0.03c2.01,-14.36 2.8,-19.77 3.05,-21.28l0.45,-2.75h-24c-0.03,-13.56 0.43,-18.85 0.99,-20.5c0.56,-1.65 2.03,-3.63 3.27,-4.41c1.27,-0.79 6.28,-1.67 11.5,-2l9.26,-0.59l0.02,-20c-7.39,-1.17 -12.68,-1.47 -16.53,-1.41c-3.85,0.06 -8.69,0.51 -10.75,1.01z" />
	</g>
</svg>